<svg width="341" height="224" viewBox="0 0 341 224" fill="none" xmlns="http://www.w3.org/2000/svg">
<g clip-path="url(#clip0_1809_14655)">
<path d="M172.839 36.6878L175.472 26.0834L168.982 24.4852L166.405 34.8019C164.709 34.3784 162.964 34.0028 161.228 33.5872L163.821 23.1986L157.363 21.6003L154.714 32.1888C153.305 31.8691 151.931 31.5468 150.592 31.2218L141.686 29.0002L139.965 35.8887C139.965 35.8887 144.655 36.9595 144.655 37.0554C147.272 37.7107 147.744 39.4528 147.664 40.8033L144.647 52.8781C144.876 52.9331 145.101 53.0052 145.319 53.0939L144.639 52.9261L140.414 69.8356C140.322 70.13 140.173 70.4035 139.975 70.6402C139.777 70.8769 139.535 71.0722 139.261 71.2148C138.987 71.3574 138.688 71.4445 138.38 71.4712C138.073 71.4978 137.763 71.4634 137.469 71.3699H137.453C137.517 71.4658 132.756 70.2031 132.756 70.2031L129.555 77.5871L137.957 79.6808C139.558 80.0724 141.054 80.48 142.558 80.8635L139.885 91.5798L146.335 93.178L148.984 82.5737C150.697 83.0371 152.417 83.4767 154.13 83.9082L151.489 94.4647L157.947 96.0629L160.62 85.3626C171.631 87.4403 179.921 86.6012 183.402 76.6601C186.211 68.6688 183.266 64.0339 177.464 61.0212C181.682 60.0463 184.867 57.2813 185.715 51.5516L185.787 51.5196C186.955 43.6962 180.985 39.4928 172.839 36.6878ZM171.03 72.185C169.038 80.1763 155.53 75.861 151.153 74.7822L154.698 60.5817C159.059 61.6765 173.103 63.8342 171.014 72.185H171.03ZM173.031 51.4078C171.207 58.6958 159.971 54.9878 156.322 54.0848L159.523 41.2109C163.164 42.1139 174.912 43.8081 172.983 51.4078H173.031Z" fill="#23408E"/>
<path d="M159.052 119.166C147.251 119.166 135.716 115.671 125.904 109.124C116.092 102.577 108.444 93.2716 103.929 82.3842C99.4126 71.4969 98.231 59.5168 100.533 47.9588C102.835 36.4009 108.518 25.7842 116.862 17.4514C125.207 9.1186 135.838 3.44388 147.412 1.14486C158.986 -1.15415 170.983 0.0257877 181.885 4.53547C192.788 9.04516 202.106 16.682 208.662 26.4804C215.218 36.2787 218.718 47.7985 218.718 59.5829C218.7 75.3798 212.408 90.5245 201.222 101.695C190.037 112.865 174.871 119.148 159.052 119.166ZM159.052 1.59825C147.568 1.59825 136.342 4.99899 126.793 11.3704C117.244 17.7419 109.802 26.7978 105.407 37.3931C101.012 47.9884 99.8625 59.6472 102.103 70.8951C104.343 82.143 109.874 92.4749 117.994 100.584C126.115 108.693 136.461 114.216 147.724 116.453C158.988 118.691 170.663 117.542 181.273 113.154C191.883 108.765 200.951 101.333 207.331 91.7974C213.712 82.2619 217.117 71.0511 217.117 59.5829C217.1 44.2097 210.977 29.4712 200.091 18.6007C189.206 7.73028 174.447 1.61562 159.052 1.59825ZM157.05 96.7188L149.039 94.7358L151.68 84.1778C150.483 83.8766 149.279 83.5644 148.084 83.2453L145.439 93.8341L137.436 91.8511L140.111 81.1277C139.798 81.0465 139.485 80.9648 139.171 80.8826C138.232 80.6372 137.28 80.3882 136.287 80.1451L126.966 77.8223L130.816 68.9425L131.482 69.1193C132.403 69.3636 133.376 69.6172 134.188 69.8236L134.075 69.655L136.203 70.2926C136.399 70.3569 136.605 70.3818 136.81 70.3658C137.015 70.3498 137.215 70.2933 137.398 70.1995C137.581 70.1058 137.744 69.9766 137.877 69.8196C138.009 69.6625 138.109 69.4807 138.171 69.2847L142.202 53.1481L142.198 53.1469L145.389 40.3734C145.452 38.8742 144.664 37.9401 142.981 37.5191L141.185 37.0692L141.229 37.0407C140.38 36.8351 139.313 36.5853 138.308 36.3563L137.512 36.1749L139.624 27.7196L149.307 30.135C150.394 30.4011 151.508 30.6639 152.648 30.9235L155.301 20.3211L163.312 22.3037L160.721 32.6841C161.177 32.7903 161.632 32.8952 162.087 32.999C162.843 33.1727 163.597 33.3451 164.342 33.5246L166.919 23.207L174.962 25.1876L172.312 35.8631C178.664 38.1376 186.458 42.2261 185.099 51.3259L185.034 51.7602L184.957 51.7941C184.164 56.4016 181.822 59.4689 177.984 60.9376C183.588 64.515 185.122 69.6605 182.678 76.6131C178.818 87.6358 169.009 87.6338 159.735 85.9731L157.05 96.7188ZM150.98 93.5699L155.885 94.7834L158.547 84.1259L159.289 84.266C171.957 86.656 178.296 84.2855 181.168 76.0847C183.557 69.2859 181.793 64.6262 175.616 61.4184L173.692 60.4191L175.805 59.9309C180.219 58.9106 182.718 56.0297 183.444 51.123L183.508 50.6883L183.574 50.6594C184.29 44.5255 180.421 40.3414 171.099 37.1317L170.407 36.8937L173.023 26.356L168.086 25.1405L165.509 35.4597L164.732 35.2658C163.743 35.0188 162.739 34.7886 161.729 34.5572C161.008 34.3917 160.284 34.2259 159.562 34.053L158.777 33.865L161.371 23.4704L156.466 22.2565L153.821 32.8301L153.057 32.6565C151.644 32.3353 150.263 32.015 148.923 31.6864L140.789 29.6574L139.46 34.9797C140.789 35.2421 142.103 35.5743 143.396 35.9751C145.812 36.5897 147.119 38.2515 146.983 40.5389L146.961 40.6852L144.125 52.0353L144.134 52.0392L143.944 52.7599L143.907 52.7505L143.892 52.7966L143.936 52.8079L139.711 69.7175C139.592 70.1177 139.394 70.4902 139.13 70.8135C138.865 71.1367 138.539 71.4041 138.17 71.6002C137.801 71.7962 137.396 71.917 136.98 71.9555C136.564 71.9939 136.144 71.9493 135.745 71.8242L135.748 71.8168C135.136 71.7345 134.001 71.4402 131.737 70.8405L129.185 76.7282L136.671 78.5937C137.669 78.838 138.629 79.0889 139.576 79.3367C140.146 79.4853 140.711 79.6332 141.277 79.7776L142.048 79.9739L139.376 90.6852L144.273 91.8987L146.926 81.2775L147.714 81.4906C149.413 81.9506 151.139 82.3982 152.843 82.8208L153.621 83.0139L150.98 93.5699ZM161.588 77.4013C157.716 77.4013 153.469 76.2869 150.737 75.5701C150.264 75.446 149.842 75.3352 149.482 75.2462L148.703 75.0542L152.636 59.2996L153.414 59.4951C153.853 59.6055 154.392 59.7265 155.004 59.8642C159.457 60.8658 166.909 62.5421 169.583 66.8753C170.365 68.1272 170.687 69.6112 170.496 71.0742H170.559L170.328 72.0665C170.139 72.9077 169.778 73.7011 169.269 74.3973C168.76 75.0936 168.113 75.6777 167.368 76.1136C165.771 77.0579 163.737 77.4013 161.588 77.4013ZM150.642 73.893C150.802 73.9348 150.969 73.9785 151.144 74.0241C154.88 75.0055 162.654 77.0439 166.552 74.7386C167.559 74.1579 168.31 73.2181 168.652 72.1079L168.759 71.6798C168.952 71.0178 169.004 70.3228 168.911 69.6396C168.818 68.9564 168.583 68.3002 168.22 67.7135C165.9 63.9535 158.583 62.3076 154.652 61.4235C154.351 61.3556 154.067 61.2916 153.803 61.2311L150.642 73.893ZM164.498 56.3154C161.318 56.3154 157.919 55.4121 155.721 54.8279C155.317 54.7206 154.957 54.6246 154.651 54.5489L153.873 54.3566L157.46 39.9313L158.237 40.1237C158.597 40.2131 159.038 40.3102 159.537 40.4203C163.19 41.2256 169.304 42.5742 171.622 46.3259C172.356 47.5115 172.655 48.9154 172.467 50.2969H172.529L172.328 51.29C172.151 52.0973 171.809 52.8594 171.323 53.5289C170.838 54.1984 170.22 54.7609 169.507 55.1814C167.967 55.9947 166.239 56.3859 164.498 56.3154ZM155.811 53.1981C155.915 53.2254 156.022 53.2539 156.133 53.2835C159.371 54.1435 165.398 55.7457 168.694 53.8048C169.542 53.3144 170.194 52.5474 170.542 51.633L170.728 50.8998C170.917 50.2793 170.973 49.6261 170.892 48.9827C170.811 48.3392 170.596 47.72 170.259 47.1652C168.298 43.9886 162.374 42.6826 159.192 41.981C158.996 41.9377 158.808 41.8963 158.63 41.8565L155.811 53.1981Z" fill="#FCA120"/>
<path d="M189.762 106.396C190.188 105.797 190.748 105.306 191.398 104.963C192.048 104.619 192.769 104.431 193.505 104.415C194.24 104.399 194.969 104.555 195.633 104.87C196.297 105.186 196.879 105.651 197.331 106.231L213.196 100.846L210.997 109.259L196.268 113.083C195.346 113.707 194.233 113.987 193.125 113.874C192.017 113.76 190.984 113.261 190.208 112.463C189.432 111.665 188.962 110.62 188.88 109.51C188.798 108.401 189.11 107.298 189.762 106.396Z" fill="#FFB8B8"/>
<path d="M314.375 223.327C315.544 210.753 318.774 198.456 323.934 186.927C325.372 183.718 326.955 180.58 328.683 177.513C329.127 176.724 327.912 176.015 327.468 176.804C321.185 187.976 316.783 200.102 314.439 212.699C313.787 216.217 313.297 219.76 312.968 223.327C312.885 224.227 314.292 224.221 314.375 223.327Z" fill="white"/>
<path d="M332.089 179.766C337.01 179.766 340.998 175.783 340.998 170.869C340.998 165.955 337.01 161.972 332.089 161.972C327.169 161.972 323.18 165.955 323.18 170.869C323.18 175.783 327.169 179.766 332.089 179.766Z" fill="white"/>
<path d="M315.286 223.564C316.044 215.406 318.139 207.428 321.487 199.949C322.42 197.867 323.447 195.832 324.568 193.842C324.624 193.738 324.638 193.616 324.606 193.502C324.574 193.388 324.499 193.291 324.397 193.232C324.294 193.172 324.173 193.154 324.058 193.182C323.943 193.21 323.843 193.282 323.78 193.382C319.704 200.629 316.848 208.496 315.327 216.669C314.904 218.951 314.586 221.249 314.373 223.564C314.319 224.147 315.232 224.144 315.286 223.564Z" fill="white"/>
<path d="M326.78 195.303C329.972 195.303 332.56 192.719 332.56 189.532C332.56 186.344 329.972 183.76 326.78 183.76C323.588 183.76 321 186.344 321 189.532C321 192.719 323.588 195.303 326.78 195.303Z" fill="white"/>
<path d="M314.136 223.019C309.71 216.121 306.448 208.544 304.481 200.59C303.935 198.376 303.491 196.14 303.149 193.883C303.129 193.766 303.065 193.662 302.97 193.592C302.874 193.522 302.755 193.491 302.638 193.507C302.521 193.523 302.414 193.583 302.341 193.676C302.267 193.769 302.233 193.886 302.244 194.004C303.494 202.222 306.088 210.179 309.922 217.557C310.994 219.616 312.159 221.624 313.417 223.579C313.734 224.073 314.451 223.509 314.136 223.019Z" fill="white"/>
<path d="M302.237 194.898C305.429 194.898 308.017 192.314 308.017 189.126C308.017 185.939 305.429 183.354 302.237 183.354C299.045 183.354 296.457 185.939 296.457 189.126C296.457 192.314 299.045 194.898 302.237 194.898Z" fill="white"/>
<path d="M267.895 139.789C268.274 139.215 268.523 138.564 268.624 137.883C268.724 137.202 268.674 136.507 268.476 135.847C268.279 135.188 267.939 134.58 267.481 134.065C267.022 133.551 266.457 133.144 265.823 132.872L267.038 116.182L259.44 120.43L259.452 135.628C259.064 136.72 259.092 137.917 259.528 138.99C259.965 140.064 260.782 140.94 261.822 141.453C262.863 141.966 264.056 142.08 265.175 141.774C266.294 141.467 267.262 140.761 267.895 139.789Z" fill="#FFB8B8"/>
<path d="M266.004 74.9127L268.082 128.023L259.641 127.554L257.766 71.8307L259.546 70.9942C260.223 70.6759 260.968 70.5301 261.716 70.5698C262.463 70.6094 263.189 70.8332 263.829 71.2213C264.468 71.6094 265.002 72.1496 265.381 72.7938C265.761 73.4379 265.975 74.1659 266.004 74.9127Z" fill="#BBC4DC"/>
<path d="M239.902 218.322L234.153 218.322L231.418 196.178L239.903 196.179L239.902 218.322Z" fill="#FFB8B8"/>
<path d="M230.047 216.682H241.134V223.653H223.066C223.066 222.737 223.247 221.831 223.598 220.985C223.949 220.139 224.463 219.371 225.111 218.723C225.759 218.076 226.529 217.563 227.376 217.212C228.223 216.862 229.13 216.682 230.047 216.682Z" fill="#2F2E41"/>
<path d="M287.734 211.461L282.517 213.873L270.719 194.926L278.418 191.367L287.734 211.461Z" fill="#FFB8B8"/>
<path d="M278.1 214.107L288.162 209.456L291.094 215.782L274.698 223.362C273.92 221.684 273.842 219.767 274.48 218.031C275.118 216.295 276.42 214.884 278.1 214.107Z" fill="#2F2E41"/>
<path d="M226.254 146.056L232.183 213.622L240.155 212.685L246.046 150.968L278.606 209.876L287.046 207.534C287.046 207.534 259.879 126.384 257.769 119.594C255.456 112.151 237.137 109.292 237.137 109.292L236.433 108.59C228.562 119.171 225.409 132.901 226.254 146.056Z" fill="#2F2E41"/>
<path d="M257.837 65.1324C264.198 65.1324 269.354 59.9832 269.354 53.6313C269.354 47.2794 264.198 42.1302 257.837 42.1302C251.477 42.1302 246.32 47.2794 246.32 53.6313C246.32 59.9832 251.477 65.1324 257.837 65.1324Z" fill="#FFB8B8"/>
<path d="M265.068 75.8229L257.064 117.485C257.064 117.485 244.9 115.059 240.567 112.137C238.851 110.976 237.294 109.777 235.981 108.691C235.723 108.48 235.479 108.269 235.24 108.068C233.074 106.218 231.742 104.841 231.742 104.841C231.742 104.841 232.436 101.446 233.285 97.4287C234.232 92.9287 235.381 87.6419 235.967 85.4832C237.257 80.749 241.683 75.2329 245.134 71.4774C246.384 70.1155 247.981 69.1188 249.755 68.5941C251.528 68.0695 253.411 68.0367 255.202 68.4992L261.448 70.11C262.666 70.4238 263.718 71.1892 264.391 72.2506C265.063 73.312 265.305 74.5894 265.068 75.8229Z" fill="#BBC4DC"/>
<path opacity="0.2" d="M245.711 94.0197C245.711 94.0197 241.407 102.954 235.24 108.068C233.074 106.218 231.742 104.841 231.742 104.841C231.742 104.841 232.436 101.446 233.285 97.4287C238.452 94.7034 243.779 92.9848 245.711 94.0197Z" fill="black"/>
<path d="M253.345 77.6654C252.92 77.4489 252.476 77.2726 252.018 77.1388C251.083 76.8829 250.099 76.8628 249.154 77.0802C248.209 77.2976 247.333 77.7457 246.604 78.3845L221.303 96.8918L201.18 103.651L204.816 112.24L234.815 104.923L254.711 87.2662C255.395 86.6104 255.914 85.8014 256.224 84.906C256.534 84.0105 256.626 83.0543 256.492 82.1164C256.359 81.1784 256.004 80.2856 255.457 79.5117C254.91 78.7377 254.186 78.1049 253.345 77.6654Z" fill="#BBC4DC"/>
<path d="M258.52 65.0266C260.16 62.5765 261.453 59.1791 259.649 56.8479C257.867 54.5467 254.353 54.8857 251.625 53.8675C247.825 52.4493 245.621 47.9911 246.308 43.9985C246.996 40.0059 250.205 36.6961 254.029 35.3419C257.852 33.9877 262.164 34.4281 265.908 35.9876C270.517 37.9073 274.471 41.621 276.129 46.3252C277.787 51.0294 276.9 56.6776 273.461 60.2934C269.773 64.1699 263.986 65.2029 258.632 65.1403" fill="#2F2E41"/>
<path d="M276.606 51.4657C277.075 54.0838 279.951 55.5708 282.594 55.8976C285.238 56.2244 287.972 55.8053 290.545 56.4918C295.081 57.702 298.073 62.0586 299.72 66.4497C301.367 70.8408 302.097 75.5801 304.237 79.7539C306.377 83.9277 310.525 87.6074 315.205 87.217C314.288 89.5216 312.682 91.4877 310.605 92.8469C308.528 94.2062 306.081 94.8925 303.6 94.8121C301.118 94.7317 298.721 93.8886 296.737 92.3979C294.752 90.9071 293.277 88.8412 292.512 86.4821C290.793 81.1828 292.766 74.8631 289.76 70.1708C288.096 67.5742 285.224 66.0468 282.454 64.686C279.685 63.3251 276.778 61.9282 274.921 59.4659C273.064 57.0036 272.693 53.1149 274.981 51.0461" fill="#2F2E41"/>
<path d="M332.687 223.899H182.496C182.348 223.899 182.206 223.84 182.101 223.736C181.996 223.631 181.938 223.489 181.938 223.342C181.938 223.194 181.996 223.052 182.101 222.947C182.206 222.843 182.348 222.784 182.496 222.784H332.687C332.835 222.784 332.977 222.843 333.082 222.947C333.186 223.052 333.245 223.194 333.245 223.342C333.245 223.489 333.186 223.631 333.082 223.736C332.977 223.84 332.835 223.899 332.687 223.899Z" fill="#3F3D56"/>
<path d="M150.749 223.899H0.558333C0.410255 223.899 0.268236 223.84 0.163529 223.736C0.0588226 223.631 0 223.489 0 223.342C0 223.194 0.0588226 223.052 0.163529 222.947C0.268236 222.843 0.410255 222.784 0.558333 222.784H150.749C150.897 222.784 151.039 222.843 151.144 222.947C151.249 223.052 151.308 223.194 151.308 223.342C151.308 223.489 151.249 223.631 151.144 223.736C151.039 223.84 150.897 223.899 150.749 223.899Z" fill="#3F3D56"/>
<path d="M96.5053 217.807L102.001 216.122L98.1113 194.152L90 196.638L96.5053 217.807Z" fill="#A0616A"/>
<path d="M114.164 217.97L96.8915 223.264L94.8435 216.599L105.443 213.351C107.212 212.809 109.126 212.991 110.761 213.857C112.397 214.723 113.621 216.203 114.164 217.97Z" fill="#2F2E41"/>
<path d="M47.7353 217.933H53.4842L56.2189 195.789L47.7344 195.79L47.7353 217.933Z" fill="#A0616A"/>
<path d="M64.5742 223.263L46.5066 223.264L46.5062 216.293L57.5932 216.292C59.4446 216.292 61.2202 217.027 62.5294 218.334C63.8386 219.641 64.5741 221.414 64.5742 223.263Z" fill="#2F2E41"/>
<path d="M49.1985 144.379C48.7262 143.965 48.3504 143.453 48.0977 142.879C47.8449 142.305 47.7213 141.683 47.7355 141.056C47.7497 140.428 47.9014 139.812 48.1799 139.25C48.4585 138.688 48.8571 138.193 49.3476 137.802L53.8048 81.7527L62.8694 84.0143L55.6117 138.688C56.216 139.555 56.481 140.613 56.3565 141.662C56.232 142.71 55.7266 143.677 54.9361 144.378C54.1456 145.08 53.1249 145.467 52.0674 145.467C51.01 145.467 49.9892 145.08 49.1985 144.379Z" fill="#A0616A"/>
<path d="M70.6342 60.4822C76.9949 60.4822 82.1513 55.333 82.1513 48.9811C82.1513 42.6292 76.9949 37.48 70.6342 37.48C64.2736 37.48 59.1172 42.6292 59.1172 48.9811C59.1172 55.333 64.2736 60.4822 70.6342 60.4822Z" fill="#A0616A"/>
<path d="M54.9044 82.8647C52.1675 79.1125 52.0832 73.9446 55.0314 70.3556C56.9554 68.0134 60.1737 66.1391 65.547 66.1391C79.869 66.1391 85.3015 77.4823 85.3015 77.4823C85.3015 77.4823 91.2279 88.3322 87.7708 98.1958C84.3138 108.059 84.3138 109.046 84.3138 109.046L61.5961 107.073C61.5961 107.073 65.4286 97.2925 54.9044 82.8647Z" fill="#BBC4DC"/>
<path d="M47.8984 92.6832L52.7925 76.6939C53.1202 75.6232 53.6795 74.6375 54.4307 73.8065C55.1819 72.9754 56.1067 72.3192 57.1397 71.8843C58.1728 71.4494 59.2889 71.2464 60.4092 71.2896C61.5295 71.3328 62.6266 71.6212 63.623 72.1343C65.3517 73.0284 66.6752 74.5455 67.3252 76.3781C67.9752 78.2106 67.9031 80.2214 67.1234 82.0028L60.9015 96.1528L47.8984 92.6832Z" fill="#BBC4DC"/>
<path d="M83.8199 106.58L103.081 206.202L92.7094 209.161L67.5224 143.568L56.1635 210.641L45.2985 212.12C45.2985 212.12 40.5326 123.375 61.596 107.073L83.8199 106.58Z" fill="#2F2E41"/>
<path d="M109.707 96.2396C109.54 96.438 109.389 96.6493 109.256 96.8714L86.0279 97.996L81.5552 84.3603L73.7891 88.0463L81.0984 108.356L109.825 102.745C110.5 103.481 111.384 103.995 112.358 104.217C113.332 104.439 114.351 104.36 115.279 103.99C116.207 103.62 117.001 102.977 117.554 102.145C118.107 101.314 118.393 100.334 118.375 99.3366C118.357 98.3388 118.035 97.3701 117.452 96.5594C116.87 95.7487 116.053 95.1344 115.112 94.7982C114.171 94.462 113.15 94.4198 112.185 94.6773C111.219 94.9348 110.355 95.4797 109.707 96.2396Z" fill="#A0616A"/>
<path d="M70.2907 78.9146C70.1597 77.8027 70.2748 76.6756 70.628 75.613C70.9812 74.5504 71.5637 73.5783 72.3345 72.7653C73.1053 71.9523 74.0455 71.3183 75.0887 70.908C76.1319 70.4978 77.2525 70.3215 78.3715 70.3913C80.3143 70.5159 82.137 71.3736 83.4699 72.7905C84.8029 74.2074 85.5464 76.0775 85.5497 78.0217V93.4754L72.2469 95.5194L70.2907 78.9146Z" fill="#BBC4DC"/>
<path d="M73.1663 60.5865C71.4377 60.579 70.1042 58.7616 70.1816 57.0371C70.2591 55.3126 71.4189 53.7953 72.8163 52.7792C74.2137 51.763 75.8524 51.144 77.4107 50.3969C78.969 49.6498 80.5138 48.7179 81.4759 47.2838C82.0571 46.3451 82.4041 45.2808 82.4876 44.1803C82.5711 43.0799 82.3887 41.9755 81.9557 40.9601C81.0604 38.9293 79.5231 37.2475 77.5793 36.1725C74.687 34.4981 71.274 33.9593 68.0055 34.6609C64.7754 35.3685 59.9615 37.3277 58.069 40.0359L56.0958 45.4012C54.0852 47.8156 55.6419 51.4013 56.8779 54.2887C58.1139 57.1762 60.7456 59.3487 63.7152 60.3815C66.7282 61.3484 69.9535 61.445 73.019 60.6601" fill="#2F2E41"/>
<path d="M62.642 42.7173C61.7938 41.3596 60.3235 40.4962 58.8035 39.9894C57.0427 39.4024 55.1699 39.2291 53.3309 39.4831C51.492 39.7371 49.7366 40.4115 48.2015 41.4539C46.6663 42.4962 45.3927 43.8783 44.4799 45.4926C43.5672 47.1069 43.0398 48.9098 42.939 50.7609C42.7779 53.7177 43.705 56.6091 44.2498 59.5199C44.7946 62.4307 44.903 65.6456 43.2958 68.1341C42.0717 70.0296 40.0303 71.223 38.0154 72.242C36.3361 73.0913 34.5196 73.8883 32.6449 73.7191C30.7701 73.5499 28.8859 72.067 28.9356 70.1879C28.308 71.5352 27.8842 72.9682 27.6781 74.4399C27.5463 75.9177 27.911 77.5123 28.9799 78.5428C30.5334 80.0406 32.995 79.931 35.13 79.6078C39.7521 78.9082 44.4324 77.5964 48.0841 74.6815C51.7357 71.7666 54.1587 66.9669 53.197 62.3983C52.7953 60.4899 51.8513 58.7477 51.0884 56.9525C50.3256 55.1573 49.73 53.1937 50.0805 51.2753C50.2879 50.2869 50.71 49.356 51.3171 48.5484C51.9242 47.7407 52.7014 47.076 53.5938 46.6011C55.3987 45.664 57.464 45.3512 59.4659 45.7119C60.7784 45.927 62.4173 46.2609 63.1958 45.184C63.4021 44.8428 63.5074 44.4502 63.4997 44.0518C63.4919 43.6533 63.3713 43.2651 63.1518 42.9323C62.7027 42.2738 62.1307 41.7078 61.4672 41.2654" fill="#2F2E41"/>
</g>
<defs>
<clipPath id="clip0_1809_14655">
<rect width="341" height="224" fill="white"/>
</clipPath>
</defs>
</svg>
